<svg width="18" height="20" viewBox="0 0 18 20" fill="none" xmlns="http://www.w3.org/2000/svg">
<path d="M0 16.9999V12.9999C0 12.4476 0.447715 11.9999 1 11.9999C1.55228 11.9999 2 12.4476 2 12.9999V16.9999L2.00488 17.0986C2.02757 17.3276 2.12883 17.5428 2.29297 17.707C2.48051 17.8945 2.73478 17.9999 3 17.9999H15C15.2652 17.9999 15.5195 17.8945 15.707 17.707C15.8946 17.5194 16 17.2651 16 16.9999V5.99992C16 5.73471 15.8946 5.48043 15.707 5.29289C15.5429 5.12875 15.3276 5.0275 15.0986 5.00481L15 4.99992H13C12.4477 4.99992 12 4.55221 12 3.99992C12 3.44764 12.4477 2.99992 13 2.99992H15C15.7956 2.99992 16.5585 3.31622 17.1211 3.87883C17.6837 4.44144 18 5.20427 18 5.99992V16.9999C18 17.7956 17.6837 18.5584 17.1211 19.121C16.5585 19.6836 15.7957 19.9999 15 19.9999H3C2.20435 19.9999 1.44152 19.6836 0.878906 19.121C0.316297 18.5584 0 17.7956 0 16.9999ZM0 8.99992V5.99992C0 5.20428 0.316297 4.44144 0.878906 3.87883C1.44152 3.31622 2.20435 2.99992 3 2.99992H6.58594L5.29297 1.70696C4.90244 1.31643 4.90244 0.683418 5.29297 0.292893C5.68349 -0.0976311 6.31651 -0.0976311 6.70703 0.292893L9.70703 3.29289C10.0976 3.68342 10.0976 4.31643 9.70703 4.70696L6.70703 7.70696C6.31651 8.09748 5.68349 8.09748 5.29297 7.70696C4.90244 7.31643 4.90244 6.68342 5.29297 6.29289L6.58594 4.99992H3C2.73478 4.99992 2.48051 5.10536 2.29297 5.29289C2.10543 5.48043 2 5.73471 2 5.99992V8.99992C2 9.55221 1.55228 9.99992 1 9.99992C0.447715 9.99992 0 9.55221 0 8.99992Z" fill="black" style="fill:black;fill-opacity:1;"/>
</svg>
